<mxfile host="app.diagrams.net" agent="Mozilla/5.0 (Macintosh; Intel Mac OS X 10.15; rv:128.0) Gecko/20100101 Firefox/128.0" version="24.7.6">
  <diagram name="Page-1" id="9f46799a-70d6-7492-0946-bef42562c5a5">
    <mxGraphModel dx="1111" dy="2822" grid="1" gridSize="10" guides="1" tooltips="1" connect="1" arrows="1" fold="1" page="1" pageScale="1" pageWidth="1100" pageHeight="850" background="none" math="0" shadow="0">
      <root>
        <mxCell id="0" />
        <mxCell id="1" parent="0" />
        <mxCell id="78961159f06e98e8-17" value="App" style="swimlane;html=1;fontStyle=1;align=center;verticalAlign=top;childLayout=stackLayout;horizontal=1;startSize=26;horizontalStack=0;resizeParent=1;resizeLast=0;collapsible=1;marginBottom=0;swimlaneFillColor=#ffffff;rounded=0;shadow=0;comic=0;labelBackgroundColor=none;strokeWidth=1;fillColor=none;fontFamily=Verdana;fontSize=12" parent="1" vertex="1">
          <mxGeometry x="80" y="-810" width="240" height="540" as="geometry" />
        </mxCell>
        <mxCell id="78961159f06e98e8-21" value="- directionsLabel: JLabel" style="text;html=1;strokeColor=none;fillColor=none;align=left;verticalAlign=top;spacingLeft=4;spacingRight=4;whiteSpace=wrap;overflow=hidden;rotatable=0;points=[[0,0.5],[1,0.5]];portConstraint=eastwest;" parent="78961159f06e98e8-17" vertex="1">
          <mxGeometry y="26" width="240" height="26" as="geometry" />
        </mxCell>
        <mxCell id="78961159f06e98e8-23" value="- directionsLabel2: JLabel" style="text;html=1;strokeColor=none;fillColor=none;align=left;verticalAlign=top;spacingLeft=4;spacingRight=4;whiteSpace=wrap;overflow=hidden;rotatable=0;points=[[0,0.5],[1,0.5]];portConstraint=eastwest;" parent="78961159f06e98e8-17" vertex="1">
          <mxGeometry y="52" width="240" height="26" as="geometry" />
        </mxCell>
        <mxCell id="78961159f06e98e8-25" value="- directionsLabel3: JLabel" style="text;html=1;strokeColor=none;fillColor=none;align=left;verticalAlign=top;spacingLeft=4;spacingRight=4;whiteSpace=wrap;overflow=hidden;rotatable=0;points=[[0,0.5],[1,0.5]];portConstraint=eastwest;" parent="78961159f06e98e8-17" vertex="1">
          <mxGeometry y="78" width="240" height="26" as="geometry" />
        </mxCell>
        <mxCell id="78961159f06e98e8-26" value="- directionsLabel4: JLabel" style="text;html=1;strokeColor=none;fillColor=none;align=left;verticalAlign=top;spacingLeft=4;spacingRight=4;whiteSpace=wrap;overflow=hidden;rotatable=0;points=[[0,0.5],[1,0.5]];portConstraint=eastwest;" parent="78961159f06e98e8-17" vertex="1">
          <mxGeometry y="104" width="240" height="26" as="geometry" />
        </mxCell>
        <mxCell id="78961159f06e98e8-24" value="- loadButton: JButton" style="text;html=1;strokeColor=none;fillColor=none;align=left;verticalAlign=top;spacingLeft=4;spacingRight=4;whiteSpace=wrap;overflow=hidden;rotatable=0;points=[[0,0.5],[1,0.5]];portConstraint=eastwest;" parent="78961159f06e98e8-17" vertex="1">
          <mxGeometry y="130" width="240" height="30" as="geometry" />
        </mxCell>
        <mxCell id="vsq3GdMX_CqRgzTWQw8X-7" value="- newButton: JButton" style="text;html=1;strokeColor=none;fillColor=none;align=left;verticalAlign=top;spacingLeft=4;spacingRight=4;whiteSpace=wrap;overflow=hidden;rotatable=0;points=[[0,0.5],[1,0.5]];portConstraint=eastwest;" vertex="1" parent="78961159f06e98e8-17">
          <mxGeometry y="160" width="240" height="26" as="geometry" />
        </mxCell>
        <mxCell id="vsq3GdMX_CqRgzTWQw8X-8" value="- loadFoodTrackButton: JButton" style="text;html=1;strokeColor=none;fillColor=none;align=left;verticalAlign=top;spacingLeft=4;spacingRight=4;whiteSpace=wrap;overflow=hidden;rotatable=0;points=[[0,0.5],[1,0.5]];portConstraint=eastwest;" vertex="1" parent="78961159f06e98e8-17">
          <mxGeometry y="186" width="240" height="26" as="geometry" />
        </mxCell>
        <mxCell id="vsq3GdMX_CqRgzTWQw8X-10" value="- newFoodTrackButton: JButton" style="text;html=1;strokeColor=none;fillColor=none;align=left;verticalAlign=top;spacingLeft=4;spacingRight=4;whiteSpace=wrap;overflow=hidden;rotatable=0;points=[[0,0.5],[1,0.5]];portConstraint=eastwest;" vertex="1" parent="78961159f06e98e8-17">
          <mxGeometry y="212" width="240" height="26" as="geometry" />
        </mxCell>
        <mxCell id="vsq3GdMX_CqRgzTWQw8X-11" value="- USER_DATA_FILE: String" style="text;html=1;strokeColor=none;fillColor=none;align=left;verticalAlign=top;spacingLeft=4;spacingRight=4;whiteSpace=wrap;overflow=hidden;rotatable=0;points=[[0,0.5],[1,0.5]];portConstraint=eastwest;" vertex="1" parent="78961159f06e98e8-17">
          <mxGeometry y="238" width="240" height="26" as="geometry" />
        </mxCell>
        <mxCell id="78961159f06e98e8-19" value="" style="line;html=1;strokeWidth=1;fillColor=none;align=left;verticalAlign=middle;spacingTop=-1;spacingLeft=3;spacingRight=3;rotatable=0;labelPosition=right;points=[];portConstraint=eastwest;" parent="78961159f06e98e8-17" vertex="1">
          <mxGeometry y="264" width="240" height="46" as="geometry" />
        </mxCell>
        <mxCell id="78961159f06e98e8-20" value="+ App()" style="text;html=1;strokeColor=none;fillColor=none;align=left;verticalAlign=top;spacingLeft=4;spacingRight=4;whiteSpace=wrap;overflow=hidden;rotatable=0;points=[[0,0.5],[1,0.5]];portConstraint=eastwest;" parent="78961159f06e98e8-17" vertex="1">
          <mxGeometry y="310" width="240" height="26" as="geometry" />
        </mxCell>
        <mxCell id="78961159f06e98e8-27" value="&lt;div&gt;+ main(args: String[]) void&lt;/div&gt;&lt;div&gt;&lt;br&gt;&lt;/div&gt;" style="text;html=1;strokeColor=none;fillColor=none;align=left;verticalAlign=top;spacingLeft=4;spacingRight=4;whiteSpace=wrap;overflow=hidden;rotatable=0;points=[[0,0.5],[1,0.5]];portConstraint=eastwest;" parent="78961159f06e98e8-17" vertex="1">
          <mxGeometry y="336" width="240" height="26" as="geometry" />
        </mxCell>
        <mxCell id="vsq3GdMX_CqRgzTWQw8X-1" value="- displayEvents(): void" style="text;html=1;strokeColor=none;fillColor=none;align=left;verticalAlign=top;spacingLeft=4;spacingRight=4;whiteSpace=wrap;overflow=hidden;rotatable=0;points=[[0,0.5],[1,0.5]];portConstraint=eastwest;" vertex="1" parent="78961159f06e98e8-17">
          <mxGeometry y="362" width="240" height="26" as="geometry" />
        </mxCell>
        <mxCell id="vsq3GdMX_CqRgzTWQw8X-2" value="&lt;div&gt;+ loadButtonClick(e: ActionEvent): void&lt;br&gt;&lt;/div&gt;&lt;div&gt;&lt;br&gt;&lt;/div&gt;" style="text;html=1;strokeColor=none;fillColor=none;align=left;verticalAlign=top;spacingLeft=4;spacingRight=4;whiteSpace=wrap;overflow=hidden;rotatable=0;points=[[0,0.5],[1,0.5]];portConstraint=eastwest;" vertex="1" parent="78961159f06e98e8-17">
          <mxGeometry y="388" width="240" height="26" as="geometry" />
        </mxCell>
        <mxCell id="vsq3GdMX_CqRgzTWQw8X-3" value="&lt;div&gt;+ newButtonClick(e: ActionEvent): void&lt;br&gt;&lt;/div&gt;&lt;div&gt;&lt;br&gt;&lt;/div&gt;" style="text;html=1;strokeColor=none;fillColor=none;align=left;verticalAlign=top;spacingLeft=4;spacingRight=4;whiteSpace=wrap;overflow=hidden;rotatable=0;points=[[0,0.5],[1,0.5]];portConstraint=eastwest;" vertex="1" parent="78961159f06e98e8-17">
          <mxGeometry y="414" width="240" height="26" as="geometry" />
        </mxCell>
        <mxCell id="vsq3GdMX_CqRgzTWQw8X-4" value="+ loadFoodTrackerButtonClick (e: ActionEvent) void" style="text;html=1;strokeColor=none;fillColor=none;align=left;verticalAlign=top;spacingLeft=4;spacingRight=4;whiteSpace=wrap;overflow=hidden;rotatable=0;points=[[0,0.5],[1,0.5]];portConstraint=eastwest;" vertex="1" parent="78961159f06e98e8-17">
          <mxGeometry y="440" width="240" height="36" as="geometry" />
        </mxCell>
        <mxCell id="vsq3GdMX_CqRgzTWQw8X-6" value="+ newFoodTrackerButtonClick (e: ActionEvent) void" style="text;html=1;strokeColor=none;fillColor=none;align=left;verticalAlign=top;spacingLeft=4;spacingRight=4;whiteSpace=wrap;overflow=hidden;rotatable=0;points=[[0,0.5],[1,0.5]];portConstraint=eastwest;" vertex="1" parent="78961159f06e98e8-17">
          <mxGeometry y="476" width="240" height="36" as="geometry" />
        </mxCell>
        <mxCell id="78961159f06e98e8-30" value="UserInfoFrame" style="swimlane;html=1;fontStyle=1;align=center;verticalAlign=top;childLayout=stackLayout;horizontal=1;startSize=26;horizontalStack=0;resizeParent=1;resizeLast=0;collapsible=1;marginBottom=0;swimlaneFillColor=#ffffff;rounded=0;shadow=0;comic=0;labelBackgroundColor=none;strokeWidth=1;fillColor=none;fontFamily=Verdana;fontSize=12" parent="1" vertex="1">
          <mxGeometry x="420" y="-860" width="350" height="350" as="geometry" />
        </mxCell>
        <mxCell id="78961159f06e98e8-31" value="- user: User" style="text;html=1;strokeColor=none;fillColor=none;align=left;verticalAlign=top;spacingLeft=4;spacingRight=4;whiteSpace=wrap;overflow=hidden;rotatable=0;points=[[0,0.5],[1,0.5]];portConstraint=eastwest;" parent="78961159f06e98e8-30" vertex="1">
          <mxGeometry y="26" width="350" height="26" as="geometry" />
        </mxCell>
        <mxCell id="78961159f06e98e8-32" value="- nameLabel: JLabel" style="text;html=1;strokeColor=none;fillColor=none;align=left;verticalAlign=top;spacingLeft=4;spacingRight=4;whiteSpace=wrap;overflow=hidden;rotatable=0;points=[[0,0.5],[1,0.5]];portConstraint=eastwest;" parent="78961159f06e98e8-30" vertex="1">
          <mxGeometry y="52" width="350" height="26" as="geometry" />
        </mxCell>
        <mxCell id="78961159f06e98e8-33" value="- caloriesLabel: JLabel" style="text;html=1;strokeColor=none;fillColor=none;align=left;verticalAlign=top;spacingLeft=4;spacingRight=4;whiteSpace=wrap;overflow=hidden;rotatable=0;points=[[0,0.5],[1,0.5]];portConstraint=eastwest;" parent="78961159f06e98e8-30" vertex="1">
          <mxGeometry y="78" width="350" height="26" as="geometry" />
        </mxCell>
        <mxCell id="78961159f06e98e8-34" value="- foodItems: FoodItems" style="text;html=1;strokeColor=none;fillColor=none;align=left;verticalAlign=top;spacingLeft=4;spacingRight=4;whiteSpace=wrap;overflow=hidden;rotatable=0;points=[[0,0.5],[1,0.5]];portConstraint=eastwest;" parent="78961159f06e98e8-30" vertex="1">
          <mxGeometry y="104" width="350" height="26" as="geometry" />
        </mxCell>
        <mxCell id="78961159f06e98e8-36" value="- USER_DATA_FILE: String" style="text;html=1;strokeColor=none;fillColor=none;align=left;verticalAlign=top;spacingLeft=4;spacingRight=4;whiteSpace=wrap;overflow=hidden;rotatable=0;points=[[0,0.5],[1,0.5]];portConstraint=eastwest;" parent="78961159f06e98e8-30" vertex="1">
          <mxGeometry y="130" width="350" height="26" as="geometry" />
        </mxCell>
        <mxCell id="78961159f06e98e8-38" value="" style="line;html=1;strokeWidth=1;fillColor=none;align=left;verticalAlign=middle;spacingTop=-1;spacingLeft=3;spacingRight=3;rotatable=0;labelPosition=right;points=[];portConstraint=eastwest;" parent="78961159f06e98e8-30" vertex="1">
          <mxGeometry y="156" width="350" height="8" as="geometry" />
        </mxCell>
        <mxCell id="78961159f06e98e8-39" value="+UserInfoFrame(user: User, foodItems: FoodItems)" style="text;html=1;strokeColor=none;fillColor=none;align=left;verticalAlign=top;spacingLeft=4;spacingRight=4;whiteSpace=wrap;overflow=hidden;rotatable=0;points=[[0,0.5],[1,0.5]];portConstraint=eastwest;" parent="78961159f06e98e8-30" vertex="1">
          <mxGeometry y="164" width="350" height="26" as="geometry" />
        </mxCell>
        <mxCell id="78961159f06e98e8-40" value="- saveDataToJson(): void" style="text;html=1;strokeColor=none;fillColor=none;align=left;verticalAlign=top;spacingLeft=4;spacingRight=4;whiteSpace=wrap;overflow=hidden;rotatable=0;points=[[0,0.5],[1,0.5]];portConstraint=eastwest;" parent="78961159f06e98e8-30" vertex="1">
          <mxGeometry y="190" width="350" height="26" as="geometry" />
        </mxCell>
        <mxCell id="78961159f06e98e8-42" value="- calculateFatBurnRate(): void" style="text;html=1;strokeColor=none;fillColor=none;align=left;verticalAlign=top;spacingLeft=4;spacingRight=4;whiteSpace=wrap;overflow=hidden;rotatable=0;points=[[0,0.5],[1,0.5]];portConstraint=eastwest;" parent="78961159f06e98e8-30" vertex="1">
          <mxGeometry y="216" width="350" height="26" as="geometry" />
        </mxCell>
        <mxCell id="vsq3GdMX_CqRgzTWQw8X-12" value="- changeUsername(): void" style="text;html=1;strokeColor=none;fillColor=none;align=left;verticalAlign=top;spacingLeft=4;spacingRight=4;whiteSpace=wrap;overflow=hidden;rotatable=0;points=[[0,0.5],[1,0.5]];portConstraint=eastwest;" vertex="1" parent="78961159f06e98e8-30">
          <mxGeometry y="242" width="350" height="26" as="geometry" />
        </mxCell>
        <mxCell id="vsq3GdMX_CqRgzTWQw8X-13" value="- updateUserCalories(): void" style="text;html=1;strokeColor=none;fillColor=none;align=left;verticalAlign=top;spacingLeft=4;spacingRight=4;whiteSpace=wrap;overflow=hidden;rotatable=0;points=[[0,0.5],[1,0.5]];portConstraint=eastwest;" vertex="1" parent="78961159f06e98e8-30">
          <mxGeometry y="268" width="350" height="26" as="geometry" />
        </mxCell>
        <mxCell id="vsq3GdMX_CqRgzTWQw8X-14" value="-createFoodTracker(): void" style="text;html=1;strokeColor=none;fillColor=none;align=left;verticalAlign=top;spacingLeft=4;spacingRight=4;whiteSpace=wrap;overflow=hidden;rotatable=0;points=[[0,0.5],[1,0.5]];portConstraint=eastwest;" vertex="1" parent="78961159f06e98e8-30">
          <mxGeometry y="294" width="350" height="26" as="geometry" />
        </mxCell>
        <mxCell id="78961159f06e98e8-43" value="FoodTrackerFrame" style="swimlane;html=1;fontStyle=1;align=center;verticalAlign=top;childLayout=stackLayout;horizontal=1;startSize=26;horizontalStack=0;resizeParent=1;resizeLast=0;collapsible=1;marginBottom=0;swimlaneFillColor=#ffffff;rounded=0;shadow=0;comic=0;labelBackgroundColor=none;strokeWidth=1;fillColor=none;fontFamily=Verdana;fontSize=12" parent="1" vertex="1">
          <mxGeometry x="440" y="-360" width="300" height="97" as="geometry" />
        </mxCell>
        <mxCell id="78961159f06e98e8-44" value="- foodItems: FoodItems" style="text;html=1;strokeColor=none;fillColor=none;align=left;verticalAlign=top;spacingLeft=4;spacingRight=4;whiteSpace=wrap;overflow=hidden;rotatable=0;points=[[0,0.5],[1,0.5]];portConstraint=eastwest;" parent="78961159f06e98e8-43" vertex="1">
          <mxGeometry y="26" width="300" height="26" as="geometry" />
        </mxCell>
        <mxCell id="78961159f06e98e8-51" value="" style="line;html=1;strokeWidth=1;fillColor=none;align=left;verticalAlign=middle;spacingTop=-1;spacingLeft=3;spacingRight=3;rotatable=0;labelPosition=right;points=[];portConstraint=eastwest;" parent="78961159f06e98e8-43" vertex="1">
          <mxGeometry y="52" width="300" height="8" as="geometry" />
        </mxCell>
        <mxCell id="vsq3GdMX_CqRgzTWQw8X-15" value="+ FoodTrackerFrame(foodItems: FoodItems)" style="text;html=1;strokeColor=none;fillColor=none;align=left;verticalAlign=top;spacingLeft=4;spacingRight=4;whiteSpace=wrap;overflow=hidden;rotatable=0;points=[[0,0.5],[1,0.5]];portConstraint=eastwest;" vertex="1" parent="78961159f06e98e8-43">
          <mxGeometry y="60" width="300" height="26" as="geometry" />
        </mxCell>
        <mxCell id="78961159f06e98e8-56" value="User" style="swimlane;html=1;fontStyle=1;align=center;verticalAlign=top;childLayout=stackLayout;horizontal=1;startSize=26;horizontalStack=0;resizeParent=1;resizeLast=0;collapsible=1;marginBottom=0;swimlaneFillColor=#ffffff;rounded=0;shadow=0;comic=0;labelBackgroundColor=none;strokeWidth=1;fillColor=none;fontFamily=Verdana;fontSize=12" parent="1" vertex="1">
          <mxGeometry x="825" y="-870" width="250" height="300" as="geometry" />
        </mxCell>
        <mxCell id="78961159f06e98e8-57" value="- name: String" style="text;html=1;strokeColor=none;fillColor=none;align=left;verticalAlign=top;spacingLeft=4;spacingRight=4;whiteSpace=wrap;overflow=hidden;rotatable=0;points=[[0,0.5],[1,0.5]];portConstraint=eastwest;" parent="78961159f06e98e8-56" vertex="1">
          <mxGeometry y="26" width="250" height="26" as="geometry" />
        </mxCell>
        <mxCell id="78961159f06e98e8-58" value="- calories: int" style="text;html=1;strokeColor=none;fillColor=none;align=left;verticalAlign=top;spacingLeft=4;spacingRight=4;whiteSpace=wrap;overflow=hidden;rotatable=0;points=[[0,0.5],[1,0.5]];portConstraint=eastwest;" parent="78961159f06e98e8-56" vertex="1">
          <mxGeometry y="52" width="250" height="26" as="geometry" />
        </mxCell>
        <mxCell id="78961159f06e98e8-64" value="" style="line;html=1;strokeWidth=1;fillColor=none;align=left;verticalAlign=middle;spacingTop=-1;spacingLeft=3;spacingRight=3;rotatable=0;labelPosition=right;points=[];portConstraint=eastwest;" parent="78961159f06e98e8-56" vertex="1">
          <mxGeometry y="78" width="250" height="8" as="geometry" />
        </mxCell>
        <mxCell id="78961159f06e98e8-59" value="&lt;div&gt;+ User (name: String, calories: int)&lt;/div&gt;&lt;div&gt;&lt;br&gt;&lt;/div&gt;" style="text;html=1;strokeColor=none;fillColor=none;align=left;verticalAlign=top;spacingLeft=4;spacingRight=4;whiteSpace=wrap;overflow=hidden;rotatable=0;points=[[0,0.5],[1,0.5]];portConstraint=eastwest;" parent="78961159f06e98e8-56" vertex="1">
          <mxGeometry y="86" width="250" height="26" as="geometry" />
        </mxCell>
        <mxCell id="78961159f06e98e8-66" value="+ getName(): String" style="text;html=1;strokeColor=none;fillColor=none;align=left;verticalAlign=top;spacingLeft=4;spacingRight=4;whiteSpace=wrap;overflow=hidden;rotatable=0;points=[[0,0.5],[1,0.5]];portConstraint=eastwest;" parent="78961159f06e98e8-56" vertex="1">
          <mxGeometry y="112" width="250" height="26" as="geometry" />
        </mxCell>
        <mxCell id="78961159f06e98e8-68" value="+ getCalories(): int" style="text;html=1;strokeColor=none;fillColor=none;align=left;verticalAlign=top;spacingLeft=4;spacingRight=4;whiteSpace=wrap;overflow=hidden;rotatable=0;points=[[0,0.5],[1,0.5]];portConstraint=eastwest;" parent="78961159f06e98e8-56" vertex="1">
          <mxGeometry y="138" width="250" height="26" as="geometry" />
        </mxCell>
        <mxCell id="78961159f06e98e8-65" value="+ changeName (newName: String): void" style="text;html=1;strokeColor=none;fillColor=none;align=left;verticalAlign=top;spacingLeft=4;spacingRight=4;whiteSpace=wrap;overflow=hidden;rotatable=0;points=[[0,0.5],[1,0.5]];portConstraint=eastwest;" parent="78961159f06e98e8-56" vertex="1">
          <mxGeometry y="164" width="250" height="26" as="geometry" />
        </mxCell>
        <mxCell id="vsq3GdMX_CqRgzTWQw8X-16" value="+ changeCal (newCalories: int): void" style="text;html=1;strokeColor=none;fillColor=none;align=left;verticalAlign=top;spacingLeft=4;spacingRight=4;whiteSpace=wrap;overflow=hidden;rotatable=0;points=[[0,0.5],[1,0.5]];portConstraint=eastwest;" vertex="1" parent="78961159f06e98e8-56">
          <mxGeometry y="190" width="250" height="26" as="geometry" />
        </mxCell>
        <mxCell id="78961159f06e98e8-69" value="FoodItems" style="swimlane;html=1;fontStyle=1;align=center;verticalAlign=top;childLayout=stackLayout;horizontal=1;startSize=26;horizontalStack=0;resizeParent=1;resizeLast=0;collapsible=1;marginBottom=0;swimlaneFillColor=#ffffff;rounded=0;shadow=0;comic=0;labelBackgroundColor=none;strokeWidth=1;fillColor=none;fontFamily=Verdana;fontSize=12" parent="1" vertex="1">
          <mxGeometry x="870" y="-400.0000000000001" width="160" height="304" as="geometry" />
        </mxCell>
        <mxCell id="78961159f06e98e8-70" value="-name:String" style="text;html=1;strokeColor=none;fillColor=none;align=left;verticalAlign=top;spacingLeft=4;spacingRight=4;whiteSpace=wrap;overflow=hidden;rotatable=0;points=[[0,0.5],[1,0.5]];portConstraint=eastwest;" parent="78961159f06e98e8-69" vertex="1">
          <mxGeometry y="26" width="160" height="26" as="geometry" />
        </mxCell>
        <mxCell id="78961159f06e98e8-77" value="" style="line;html=1;strokeWidth=1;fillColor=none;align=left;verticalAlign=middle;spacingTop=-1;spacingLeft=3;spacingRight=3;rotatable=0;labelPosition=right;points=[];portConstraint=eastwest;" parent="78961159f06e98e8-69" vertex="1">
          <mxGeometry y="52" width="160" height="8" as="geometry" />
        </mxCell>
        <mxCell id="78961159f06e98e8-78" value="+ FoodItems(name:String)" style="text;html=1;strokeColor=none;fillColor=none;align=left;verticalAlign=top;spacingLeft=4;spacingRight=4;whiteSpace=wrap;overflow=hidden;rotatable=0;points=[[0,0.5],[1,0.5]];portConstraint=eastwest;" parent="78961159f06e98e8-69" vertex="1">
          <mxGeometry y="60" width="160" height="26" as="geometry" />
        </mxCell>
        <mxCell id="78961159f06e98e8-79" value="+getName(): String" style="text;html=1;strokeColor=none;fillColor=none;align=left;verticalAlign=top;spacingLeft=4;spacingRight=4;whiteSpace=wrap;overflow=hidden;rotatable=0;points=[[0,0.5],[1,0.5]];portConstraint=eastwest;" parent="78961159f06e98e8-69" vertex="1">
          <mxGeometry y="86" width="160" height="26" as="geometry" />
        </mxCell>
        <mxCell id="78961159f06e98e8-82" value="JSONReader" style="swimlane;html=1;fontStyle=1;align=center;verticalAlign=top;childLayout=stackLayout;horizontal=1;startSize=26;horizontalStack=0;resizeParent=1;resizeLast=0;collapsible=1;marginBottom=0;swimlaneFillColor=#ffffff;rounded=0;shadow=0;comic=0;labelBackgroundColor=none;strokeWidth=1;fillColor=none;fontFamily=Verdana;fontSize=12" parent="1" vertex="1">
          <mxGeometry x="490" y="230" width="190" height="148" as="geometry" />
        </mxCell>
        <mxCell id="78961159f06e98e8-83" value="- source: String" style="text;html=1;strokeColor=none;fillColor=none;align=left;verticalAlign=top;spacingLeft=4;spacingRight=4;whiteSpace=wrap;overflow=hidden;rotatable=0;points=[[0,0.5],[1,0.5]];portConstraint=eastwest;" parent="78961159f06e98e8-82" vertex="1">
          <mxGeometry y="26" width="190" height="26" as="geometry" />
        </mxCell>
        <mxCell id="78961159f06e98e8-90" value="" style="line;html=1;strokeWidth=1;fillColor=none;align=left;verticalAlign=middle;spacingTop=-1;spacingLeft=3;spacingRight=3;rotatable=0;labelPosition=right;points=[];portConstraint=eastwest;" parent="78961159f06e98e8-82" vertex="1">
          <mxGeometry y="52" width="190" height="8" as="geometry" />
        </mxCell>
        <mxCell id="78961159f06e98e8-91" value="+ JSONReader (source: String)" style="text;html=1;strokeColor=none;fillColor=none;align=left;verticalAlign=top;spacingLeft=4;spacingRight=4;whiteSpace=wrap;overflow=hidden;rotatable=0;points=[[0,0.5],[1,0.5]];portConstraint=eastwest;" parent="78961159f06e98e8-82" vertex="1">
          <mxGeometry y="60" width="190" height="26" as="geometry" />
        </mxCell>
        <mxCell id="78961159f06e98e8-94" value="+ readUser(): User" style="text;html=1;strokeColor=none;fillColor=none;align=left;verticalAlign=top;spacingLeft=4;spacingRight=4;whiteSpace=wrap;overflow=hidden;rotatable=0;points=[[0,0.5],[1,0.5]];portConstraint=eastwest;" parent="78961159f06e98e8-82" vertex="1">
          <mxGeometry y="86" width="190" height="26" as="geometry" />
        </mxCell>
        <mxCell id="vsq3GdMX_CqRgzTWQw8X-18" value="+ readFoodItems(): FoodItems" style="text;html=1;strokeColor=none;fillColor=none;align=left;verticalAlign=top;spacingLeft=4;spacingRight=4;whiteSpace=wrap;overflow=hidden;rotatable=0;points=[[0,0.5],[1,0.5]];portConstraint=eastwest;" vertex="1" parent="78961159f06e98e8-82">
          <mxGeometry y="112" width="190" height="26" as="geometry" />
        </mxCell>
        <mxCell id="78961159f06e98e8-95" value="JSONWriter" style="swimlane;html=1;fontStyle=1;align=center;verticalAlign=top;childLayout=stackLayout;horizontal=1;startSize=26;horizontalStack=0;resizeParent=1;resizeLast=0;collapsible=1;marginBottom=0;swimlaneFillColor=#ffffff;rounded=0;shadow=0;comic=0;labelBackgroundColor=none;strokeWidth=1;fillColor=none;fontFamily=Verdana;fontSize=12" parent="1" vertex="1">
          <mxGeometry x="470" y="440" width="220" height="248" as="geometry" />
        </mxCell>
        <mxCell id="78961159f06e98e8-96" value="-destination: String" style="text;html=1;strokeColor=none;fillColor=none;align=left;verticalAlign=top;spacingLeft=4;spacingRight=4;whiteSpace=wrap;overflow=hidden;rotatable=0;points=[[0,0.5],[1,0.5]];portConstraint=eastwest;" parent="78961159f06e98e8-95" vertex="1">
          <mxGeometry y="26" width="220" height="26" as="geometry" />
        </mxCell>
        <mxCell id="78961159f06e98e8-103" value="" style="line;html=1;strokeWidth=1;fillColor=none;align=left;verticalAlign=middle;spacingTop=-1;spacingLeft=3;spacingRight=3;rotatable=0;labelPosition=right;points=[];portConstraint=eastwest;" parent="78961159f06e98e8-95" vertex="1">
          <mxGeometry y="52" width="220" height="8" as="geometry" />
        </mxCell>
        <mxCell id="78961159f06e98e8-104" value="+ JSONWriter(destination: String)" style="text;html=1;strokeColor=none;fillColor=none;align=left;verticalAlign=top;spacingLeft=4;spacingRight=4;whiteSpace=wrap;overflow=hidden;rotatable=0;points=[[0,0.5],[1,0.5]];portConstraint=eastwest;" parent="78961159f06e98e8-95" vertex="1">
          <mxGeometry y="60" width="220" height="26" as="geometry" />
        </mxCell>
        <mxCell id="vsq3GdMX_CqRgzTWQw8X-19" value="+ writeUser (user:User): void" style="text;html=1;strokeColor=none;fillColor=none;align=left;verticalAlign=top;spacingLeft=4;spacingRight=4;whiteSpace=wrap;overflow=hidden;rotatable=0;points=[[0,0.5],[1,0.5]];portConstraint=eastwest;" vertex="1" parent="78961159f06e98e8-95">
          <mxGeometry y="86" width="220" height="26" as="geometry" />
        </mxCell>
        <mxCell id="vsq3GdMX_CqRgzTWQw8X-20" value="+ writeFoodItems (foodItems: FoodItems): void" style="text;html=1;strokeColor=none;fillColor=none;align=left;verticalAlign=top;spacingLeft=4;spacingRight=4;whiteSpace=wrap;overflow=hidden;rotatable=0;points=[[0,0.5],[1,0.5]];portConstraint=eastwest;" vertex="1" parent="78961159f06e98e8-95">
          <mxGeometry y="112" width="220" height="38" as="geometry" />
        </mxCell>
        <mxCell id="vsq3GdMX_CqRgzTWQw8X-21" value="+ writeData (user: User, foodItems: FoodItems) :void" style="text;html=1;strokeColor=none;fillColor=none;align=left;verticalAlign=top;spacingLeft=4;spacingRight=4;whiteSpace=wrap;overflow=hidden;rotatable=0;points=[[0,0.5],[1,0.5]];portConstraint=eastwest;" vertex="1" parent="78961159f06e98e8-95">
          <mxGeometry y="150" width="220" height="40" as="geometry" />
        </mxCell>
        <mxCell id="78961159f06e98e8-108" value="Event" style="swimlane;html=1;fontStyle=1;align=center;verticalAlign=top;childLayout=stackLayout;horizontal=1;startSize=26;horizontalStack=0;resizeParent=1;resizeLast=0;collapsible=1;marginBottom=0;swimlaneFillColor=#ffffff;rounded=0;shadow=0;comic=0;labelBackgroundColor=none;strokeWidth=1;fillColor=none;fontFamily=Verdana;fontSize=12" parent="1" vertex="1">
          <mxGeometry x="780" y="360" width="210" height="360" as="geometry" />
        </mxCell>
        <mxCell id="78961159f06e98e8-109" value="-HASH_CONSTANT: int" style="text;html=1;strokeColor=none;fillColor=none;align=left;verticalAlign=top;spacingLeft=4;spacingRight=4;whiteSpace=wrap;overflow=hidden;rotatable=0;points=[[0,0.5],[1,0.5]];portConstraint=eastwest;" parent="78961159f06e98e8-108" vertex="1">
          <mxGeometry y="26" width="210" height="26" as="geometry" />
        </mxCell>
        <mxCell id="78961159f06e98e8-110" value="- dateLogged: Date" style="text;html=1;strokeColor=none;fillColor=none;align=left;verticalAlign=top;spacingLeft=4;spacingRight=4;whiteSpace=wrap;overflow=hidden;rotatable=0;points=[[0,0.5],[1,0.5]];portConstraint=eastwest;" parent="78961159f06e98e8-108" vertex="1">
          <mxGeometry y="52" width="210" height="28" as="geometry" />
        </mxCell>
        <mxCell id="78961159f06e98e8-117" value="-description: String" style="text;html=1;strokeColor=none;fillColor=none;align=left;verticalAlign=top;spacingLeft=4;spacingRight=4;whiteSpace=wrap;overflow=hidden;rotatable=0;points=[[0,0.5],[1,0.5]];portConstraint=eastwest;" parent="78961159f06e98e8-108" vertex="1">
          <mxGeometry y="80" width="210" height="26" as="geometry" />
        </mxCell>
        <mxCell id="78961159f06e98e8-116" value="" style="line;html=1;strokeWidth=1;fillColor=none;align=left;verticalAlign=middle;spacingTop=-1;spacingLeft=3;spacingRight=3;rotatable=0;labelPosition=right;points=[];portConstraint=eastwest;" parent="78961159f06e98e8-108" vertex="1">
          <mxGeometry y="106" width="210" height="30" as="geometry" />
        </mxCell>
        <mxCell id="78961159f06e98e8-120" value="&lt;div&gt;+ Event(description: String)&lt;/div&gt;" style="text;html=1;strokeColor=none;fillColor=none;align=left;verticalAlign=top;spacingLeft=4;spacingRight=4;whiteSpace=wrap;overflow=hidden;rotatable=0;points=[[0,0.5],[1,0.5]];portConstraint=eastwest;" parent="78961159f06e98e8-108" vertex="1">
          <mxGeometry y="136" width="210" height="26" as="geometry" />
        </mxCell>
        <mxCell id="vsq3GdMX_CqRgzTWQw8X-22" value="+ getDate(): Date" style="text;html=1;strokeColor=none;fillColor=none;align=left;verticalAlign=top;spacingLeft=4;spacingRight=4;whiteSpace=wrap;overflow=hidden;rotatable=0;points=[[0,0.5],[1,0.5]];portConstraint=eastwest;" vertex="1" parent="78961159f06e98e8-108">
          <mxGeometry y="162" width="210" height="26" as="geometry" />
        </mxCell>
        <mxCell id="vsq3GdMX_CqRgzTWQw8X-23" value="+ getDescription(): String" style="text;html=1;strokeColor=none;fillColor=none;align=left;verticalAlign=top;spacingLeft=4;spacingRight=4;whiteSpace=wrap;overflow=hidden;rotatable=0;points=[[0,0.5],[1,0.5]];portConstraint=eastwest;" vertex="1" parent="78961159f06e98e8-108">
          <mxGeometry y="188" width="210" height="26" as="geometry" />
        </mxCell>
        <mxCell id="vsq3GdMX_CqRgzTWQw8X-24" value="+ equals (other: Object): boolean" style="text;html=1;strokeColor=none;fillColor=none;align=left;verticalAlign=top;spacingLeft=4;spacingRight=4;whiteSpace=wrap;overflow=hidden;rotatable=0;points=[[0,0.5],[1,0.5]];portConstraint=eastwest;" vertex="1" parent="78961159f06e98e8-108">
          <mxGeometry y="214" width="210" height="26" as="geometry" />
        </mxCell>
        <mxCell id="vsq3GdMX_CqRgzTWQw8X-25" value="+ hashCode(): int" style="text;html=1;strokeColor=none;fillColor=none;align=left;verticalAlign=top;spacingLeft=4;spacingRight=4;whiteSpace=wrap;overflow=hidden;rotatable=0;points=[[0,0.5],[1,0.5]];portConstraint=eastwest;" vertex="1" parent="78961159f06e98e8-108">
          <mxGeometry y="240" width="210" height="26" as="geometry" />
        </mxCell>
        <mxCell id="vsq3GdMX_CqRgzTWQw8X-26" value="+ toString(): String" style="text;html=1;strokeColor=none;fillColor=none;align=left;verticalAlign=top;spacingLeft=4;spacingRight=4;whiteSpace=wrap;overflow=hidden;rotatable=0;points=[[0,0.5],[1,0.5]];portConstraint=eastwest;" vertex="1" parent="78961159f06e98e8-108">
          <mxGeometry y="266" width="210" height="26" as="geometry" />
        </mxCell>
        <mxCell id="vsq3GdMX_CqRgzTWQw8X-27" value="EventLog" style="swimlane;html=1;fontStyle=1;align=center;verticalAlign=top;childLayout=stackLayout;horizontal=1;startSize=26;horizontalStack=0;resizeParent=1;resizeLast=0;collapsible=1;marginBottom=0;swimlaneFillColor=#ffffff;rounded=0;shadow=0;comic=0;labelBackgroundColor=none;strokeWidth=1;fillColor=none;fontFamily=Verdana;fontSize=12" vertex="1" parent="1">
          <mxGeometry x="880" y="30" width="190" height="260" as="geometry" />
        </mxCell>
        <mxCell id="vsq3GdMX_CqRgzTWQw8X-28" value="- theLog: EventLog" style="text;html=1;strokeColor=none;fillColor=none;align=left;verticalAlign=top;spacingLeft=4;spacingRight=4;whiteSpace=wrap;overflow=hidden;rotatable=0;points=[[0,0.5],[1,0.5]];portConstraint=eastwest;" vertex="1" parent="vsq3GdMX_CqRgzTWQw8X-27">
          <mxGeometry y="26" width="190" height="26" as="geometry" />
        </mxCell>
        <mxCell id="vsq3GdMX_CqRgzTWQw8X-33" value="- event: Collection &amp;lt;Events&amp;gt;" style="text;html=1;strokeColor=none;fillColor=none;align=left;verticalAlign=top;spacingLeft=4;spacingRight=4;whiteSpace=wrap;overflow=hidden;rotatable=0;points=[[0,0.5],[1,0.5]];portConstraint=eastwest;" vertex="1" parent="vsq3GdMX_CqRgzTWQw8X-27">
          <mxGeometry y="52" width="190" height="26" as="geometry" />
        </mxCell>
        <mxCell id="vsq3GdMX_CqRgzTWQw8X-29" value="" style="line;html=1;strokeWidth=1;fillColor=none;align=left;verticalAlign=middle;spacingTop=-1;spacingLeft=3;spacingRight=3;rotatable=0;labelPosition=right;points=[];portConstraint=eastwest;" vertex="1" parent="vsq3GdMX_CqRgzTWQw8X-27">
          <mxGeometry y="78" width="190" height="48" as="geometry" />
        </mxCell>
        <mxCell id="vsq3GdMX_CqRgzTWQw8X-30" value="+ getInstance(): EventLog" style="text;html=1;strokeColor=none;fillColor=none;align=left;verticalAlign=top;spacingLeft=4;spacingRight=4;whiteSpace=wrap;overflow=hidden;rotatable=0;points=[[0,0.5],[1,0.5]];portConstraint=eastwest;" vertex="1" parent="vsq3GdMX_CqRgzTWQw8X-27">
          <mxGeometry y="126" width="190" height="26" as="geometry" />
        </mxCell>
        <mxCell id="vsq3GdMX_CqRgzTWQw8X-31" value="+ logEvent(E:Event):void" style="text;html=1;strokeColor=none;fillColor=none;align=left;verticalAlign=top;spacingLeft=4;spacingRight=4;whiteSpace=wrap;overflow=hidden;rotatable=0;points=[[0,0.5],[1,0.5]];portConstraint=eastwest;" vertex="1" parent="vsq3GdMX_CqRgzTWQw8X-27">
          <mxGeometry y="152" width="190" height="26" as="geometry" />
        </mxCell>
        <mxCell id="vsq3GdMX_CqRgzTWQw8X-32" value="+ clear(): void" style="text;html=1;strokeColor=none;fillColor=none;align=left;verticalAlign=top;spacingLeft=4;spacingRight=4;whiteSpace=wrap;overflow=hidden;rotatable=0;points=[[0,0.5],[1,0.5]];portConstraint=eastwest;" vertex="1" parent="vsq3GdMX_CqRgzTWQw8X-27">
          <mxGeometry y="178" width="190" height="26" as="geometry" />
        </mxCell>
        <mxCell id="vsq3GdMX_CqRgzTWQw8X-34" value="+ interator(): Iterator&amp;lt;Event&amp;gt;" style="text;html=1;strokeColor=none;fillColor=none;align=left;verticalAlign=top;spacingLeft=4;spacingRight=4;whiteSpace=wrap;overflow=hidden;rotatable=0;points=[[0,0.5],[1,0.5]];portConstraint=eastwest;" vertex="1" parent="vsq3GdMX_CqRgzTWQw8X-27">
          <mxGeometry y="204" width="190" height="26" as="geometry" />
        </mxCell>
        <mxCell id="vsq3GdMX_CqRgzTWQw8X-35" value="DisplayFoodTracker" style="swimlane;html=1;fontStyle=1;align=center;verticalAlign=top;childLayout=stackLayout;horizontal=1;startSize=26;horizontalStack=0;resizeParent=1;resizeLast=0;collapsible=1;marginBottom=0;swimlaneFillColor=#ffffff;rounded=0;shadow=0;comic=0;labelBackgroundColor=none;strokeWidth=1;fillColor=none;fontFamily=Verdana;fontSize=12" vertex="1" parent="1">
          <mxGeometry x="80" y="-190" width="300" height="246" as="geometry" />
        </mxCell>
        <mxCell id="vsq3GdMX_CqRgzTWQw8X-36" value="- foodItems: FoodItems" style="text;html=1;strokeColor=none;fillColor=none;align=left;verticalAlign=top;spacingLeft=4;spacingRight=4;whiteSpace=wrap;overflow=hidden;rotatable=0;points=[[0,0.5],[1,0.5]];portConstraint=eastwest;" vertex="1" parent="vsq3GdMX_CqRgzTWQw8X-35">
          <mxGeometry y="26" width="300" height="26" as="geometry" />
        </mxCell>
        <mxCell id="vsq3GdMX_CqRgzTWQw8X-43" value="- foodItemsArea: FoodItems" style="text;html=1;strokeColor=none;fillColor=none;align=left;verticalAlign=top;spacingLeft=4;spacingRight=4;whiteSpace=wrap;overflow=hidden;rotatable=0;points=[[0,0.5],[1,0.5]];portConstraint=eastwest;" vertex="1" parent="vsq3GdMX_CqRgzTWQw8X-35">
          <mxGeometry y="52" width="300" height="26" as="geometry" />
        </mxCell>
        <mxCell id="vsq3GdMX_CqRgzTWQw8X-37" value="" style="line;html=1;strokeWidth=1;fillColor=none;align=left;verticalAlign=middle;spacingTop=-1;spacingLeft=3;spacingRight=3;rotatable=0;labelPosition=right;points=[];portConstraint=eastwest;" vertex="1" parent="vsq3GdMX_CqRgzTWQw8X-35">
          <mxGeometry y="78" width="300" height="38" as="geometry" />
        </mxCell>
        <mxCell id="vsq3GdMX_CqRgzTWQw8X-38" value="&lt;div&gt;+ DisplayTracker (foodItems: FoodItems)&lt;/div&gt;&lt;div&gt;&lt;br&gt;&lt;/div&gt;" style="text;html=1;strokeColor=none;fillColor=none;align=left;verticalAlign=top;spacingLeft=4;spacingRight=4;whiteSpace=wrap;overflow=hidden;rotatable=0;points=[[0,0.5],[1,0.5]];portConstraint=eastwest;" vertex="1" parent="vsq3GdMX_CqRgzTWQw8X-35">
          <mxGeometry y="116" width="300" height="26" as="geometry" />
        </mxCell>
        <mxCell id="vsq3GdMX_CqRgzTWQw8X-39" value="- updateFoodItemsDisplay()" style="text;html=1;strokeColor=none;fillColor=none;align=left;verticalAlign=top;spacingLeft=4;spacingRight=4;whiteSpace=wrap;overflow=hidden;rotatable=0;points=[[0,0.5],[1,0.5]];portConstraint=eastwest;" vertex="1" parent="vsq3GdMX_CqRgzTWQw8X-35">
          <mxGeometry y="142" width="300" height="26" as="geometry" />
        </mxCell>
        <mxCell id="vsq3GdMX_CqRgzTWQw8X-40" value="- sortByName(): void" style="text;html=1;strokeColor=none;fillColor=none;align=left;verticalAlign=top;spacingLeft=4;spacingRight=4;whiteSpace=wrap;overflow=hidden;rotatable=0;points=[[0,0.5],[1,0.5]];portConstraint=eastwest;" vertex="1" parent="vsq3GdMX_CqRgzTWQw8X-35">
          <mxGeometry y="168" width="300" height="26" as="geometry" />
        </mxCell>
        <mxCell id="vsq3GdMX_CqRgzTWQw8X-41" value="- sortByCalories(): void" style="text;html=1;strokeColor=none;fillColor=none;align=left;verticalAlign=top;spacingLeft=4;spacingRight=4;whiteSpace=wrap;overflow=hidden;rotatable=0;points=[[0,0.5],[1,0.5]];portConstraint=eastwest;" vertex="1" parent="vsq3GdMX_CqRgzTWQw8X-35">
          <mxGeometry y="194" width="300" height="26" as="geometry" />
        </mxCell>
        <mxCell id="vsq3GdMX_CqRgzTWQw8X-42" value="- removeSpecificFood(): void" style="text;html=1;strokeColor=none;fillColor=none;align=left;verticalAlign=top;spacingLeft=4;spacingRight=4;whiteSpace=wrap;overflow=hidden;rotatable=0;points=[[0,0.5],[1,0.5]];portConstraint=eastwest;" vertex="1" parent="vsq3GdMX_CqRgzTWQw8X-35">
          <mxGeometry y="220" width="300" height="26" as="geometry" />
        </mxCell>
        <mxCell id="vsq3GdMX_CqRgzTWQw8X-51" value="FoodItem" style="swimlane;html=1;fontStyle=1;align=center;verticalAlign=top;childLayout=stackLayout;horizontal=1;startSize=26;horizontalStack=0;resizeParent=1;resizeLast=0;collapsible=1;marginBottom=0;swimlaneFillColor=#ffffff;rounded=0;shadow=0;comic=0;labelBackgroundColor=none;strokeWidth=1;fillColor=none;fontFamily=Verdana;fontSize=12" vertex="1" parent="1">
          <mxGeometry x="510" y="-150" width="160" height="270" as="geometry" />
        </mxCell>
        <mxCell id="vsq3GdMX_CqRgzTWQw8X-52" value="&lt;div&gt;- foodName: String&lt;/div&gt;" style="text;html=1;strokeColor=none;fillColor=none;align=left;verticalAlign=top;spacingLeft=4;spacingRight=4;whiteSpace=wrap;overflow=hidden;rotatable=0;points=[[0,0.5],[1,0.5]];portConstraint=eastwest;" vertex="1" parent="vsq3GdMX_CqRgzTWQw8X-51">
          <mxGeometry y="26" width="160" height="24" as="geometry" />
        </mxCell>
        <mxCell id="vsq3GdMX_CqRgzTWQw8X-57" value="- calories: int" style="text;html=1;strokeColor=none;fillColor=none;align=left;verticalAlign=top;spacingLeft=4;spacingRight=4;whiteSpace=wrap;overflow=hidden;rotatable=0;points=[[0,0.5],[1,0.5]];portConstraint=eastwest;" vertex="1" parent="vsq3GdMX_CqRgzTWQw8X-51">
          <mxGeometry y="50" width="160" height="24" as="geometry" />
        </mxCell>
        <mxCell id="vsq3GdMX_CqRgzTWQw8X-53" value="" style="line;html=1;strokeWidth=1;fillColor=none;align=left;verticalAlign=middle;spacingTop=-1;spacingLeft=3;spacingRight=3;rotatable=0;labelPosition=right;points=[];portConstraint=eastwest;" vertex="1" parent="vsq3GdMX_CqRgzTWQw8X-51">
          <mxGeometry y="74" width="160" height="76" as="geometry" />
        </mxCell>
        <mxCell id="vsq3GdMX_CqRgzTWQw8X-54" value="+ FoodItems(name:String, calories: int)" style="text;html=1;strokeColor=none;fillColor=none;align=left;verticalAlign=top;spacingLeft=4;spacingRight=4;whiteSpace=wrap;overflow=hidden;rotatable=0;points=[[0,0.5],[1,0.5]];portConstraint=eastwest;" vertex="1" parent="vsq3GdMX_CqRgzTWQw8X-51">
          <mxGeometry y="150" width="160" height="50" as="geometry" />
        </mxCell>
        <mxCell id="vsq3GdMX_CqRgzTWQw8X-55" value="+getFoodName(): String" style="text;html=1;strokeColor=none;fillColor=none;align=left;verticalAlign=top;spacingLeft=4;spacingRight=4;whiteSpace=wrap;overflow=hidden;rotatable=0;points=[[0,0.5],[1,0.5]];portConstraint=eastwest;" vertex="1" parent="vsq3GdMX_CqRgzTWQw8X-51">
          <mxGeometry y="200" width="160" height="26" as="geometry" />
        </mxCell>
        <mxCell id="vsq3GdMX_CqRgzTWQw8X-56" value="+getCalories(): int" style="text;html=1;strokeColor=none;fillColor=none;align=left;verticalAlign=top;spacingLeft=4;spacingRight=4;whiteSpace=wrap;overflow=hidden;rotatable=0;points=[[0,0.5],[1,0.5]];portConstraint=eastwest;" vertex="1" parent="vsq3GdMX_CqRgzTWQw8X-51">
          <mxGeometry y="226" width="160" height="26" as="geometry" />
        </mxCell>
        <mxCell id="vsq3GdMX_CqRgzTWQw8X-60" value="" style="curved=1;endArrow=classic;html=1;rounded=0;fontSize=12;startSize=8;endSize=8;entryX=0;entryY=0.5;entryDx=0;entryDy=0;" edge="1" parent="1" target="78961159f06e98e8-36">
          <mxGeometry width="50" height="50" relative="1" as="geometry">
            <mxPoint x="320" y="-610" as="sourcePoint" />
            <mxPoint x="370" y="-660" as="targetPoint" />
            <Array as="points">
              <mxPoint x="400" y="-620" />
              <mxPoint x="320" y="-717" />
            </Array>
          </mxGeometry>
        </mxCell>
        <mxCell id="vsq3GdMX_CqRgzTWQw8X-61" value="" style="curved=1;endArrow=classic;html=1;rounded=0;fontSize=12;startSize=8;endSize=8;entryX=-0.001;entryY=1.053;entryDx=0;entryDy=0;entryPerimeter=0;" edge="1" parent="1" target="78961159f06e98e8-44">
          <mxGeometry width="50" height="50" relative="1" as="geometry">
            <mxPoint x="320" y="-380" as="sourcePoint" />
            <mxPoint x="370" y="-430" as="targetPoint" />
            <Array as="points">
              <mxPoint x="370" y="-380" />
              <mxPoint x="360" y="-350" />
              <mxPoint x="390" y="-340" />
            </Array>
          </mxGeometry>
        </mxCell>
        <mxCell id="vsq3GdMX_CqRgzTWQw8X-62" value="" style="curved=1;endArrow=classic;html=1;rounded=0;fontSize=12;startSize=8;endSize=8;entryX=0.717;entryY=-0.005;entryDx=0;entryDy=0;entryPerimeter=0;" edge="1" parent="1" target="vsq3GdMX_CqRgzTWQw8X-35">
          <mxGeometry width="50" height="50" relative="1" as="geometry">
            <mxPoint x="180" y="-270" as="sourcePoint" />
            <mxPoint x="260" y="-250" as="targetPoint" />
            <Array as="points">
              <mxPoint x="300" y="-250" />
              <mxPoint x="210" y="-240" />
              <mxPoint x="140" y="-220" />
              <mxPoint x="250" y="-200" />
              <mxPoint x="230" y="-220" />
              <mxPoint x="320" y="-240" />
              <mxPoint x="290" y="-210" />
            </Array>
          </mxGeometry>
        </mxCell>
        <mxCell id="vsq3GdMX_CqRgzTWQw8X-63" value="" style="curved=1;endArrow=classic;html=1;rounded=0;fontSize=12;startSize=8;endSize=8;" edge="1" parent="1">
          <mxGeometry width="50" height="50" relative="1" as="geometry">
            <mxPoint x="770" y="-760" as="sourcePoint" />
            <mxPoint x="820" y="-810" as="targetPoint" />
            <Array as="points">
              <mxPoint x="820" y="-760" />
              <mxPoint x="770" y="-810" />
            </Array>
          </mxGeometry>
        </mxCell>
        <mxCell id="vsq3GdMX_CqRgzTWQw8X-65" value="" style="curved=1;endArrow=classic;html=1;rounded=0;fontSize=12;startSize=8;endSize=8;exitX=1;exitY=0.5;exitDx=0;exitDy=0;" edge="1" parent="1" source="vsq3GdMX_CqRgzTWQw8X-14">
          <mxGeometry width="50" height="50" relative="1" as="geometry">
            <mxPoint x="770" y="-510" as="sourcePoint" />
            <mxPoint x="920" y="-410" as="targetPoint" />
            <Array as="points">
              <mxPoint x="840" y="-540" />
              <mxPoint x="860" y="-520" />
              <mxPoint x="920" y="-520" />
            </Array>
          </mxGeometry>
        </mxCell>
        <mxCell id="vsq3GdMX_CqRgzTWQw8X-66" value="" style="curved=1;endArrow=classic;html=1;rounded=0;fontSize=12;startSize=8;endSize=8;" edge="1" parent="1">
          <mxGeometry width="50" height="50" relative="1" as="geometry">
            <mxPoint x="740" y="-300" as="sourcePoint" />
            <mxPoint x="860" y="-350" as="targetPoint" />
            <Array as="points">
              <mxPoint x="790" y="-300" />
              <mxPoint x="790" y="-320" />
              <mxPoint x="780" y="-340" />
            </Array>
          </mxGeometry>
        </mxCell>
        <mxCell id="vsq3GdMX_CqRgzTWQw8X-67" value="" style="curved=1;endArrow=classic;html=1;rounded=0;fontSize=12;startSize=8;endSize=8;" edge="1" parent="1">
          <mxGeometry width="50" height="50" relative="1" as="geometry">
            <mxPoint x="380" y="-120" as="sourcePoint" />
            <mxPoint x="870" y="-190" as="targetPoint" />
            <Array as="points">
              <mxPoint x="430" y="-120" />
              <mxPoint x="550" y="-230" />
            </Array>
          </mxGeometry>
        </mxCell>
        <mxCell id="vsq3GdMX_CqRgzTWQw8X-68" value="" style="curved=1;endArrow=classic;html=1;rounded=0;fontSize=12;startSize=8;endSize=8;" edge="1" parent="1">
          <mxGeometry width="50" height="50" relative="1" as="geometry">
            <mxPoint x="870" y="-130" as="sourcePoint" />
            <mxPoint x="670" y="-100" as="targetPoint" />
            <Array as="points">
              <mxPoint x="800" y="-80" />
              <mxPoint x="750" y="-130" />
            </Array>
          </mxGeometry>
        </mxCell>
        <mxCell id="vsq3GdMX_CqRgzTWQw8X-69" value="" style="curved=1;endArrow=classic;html=1;rounded=0;fontSize=12;startSize=8;endSize=8;" edge="1" parent="1">
          <mxGeometry width="50" height="50" relative="1" as="geometry">
            <mxPoint x="680" y="290" as="sourcePoint" />
            <mxPoint x="850" y="-570" as="targetPoint" />
            <Array as="points">
              <mxPoint x="730" y="290" />
              <mxPoint x="740" y="30" />
            </Array>
          </mxGeometry>
        </mxCell>
        <mxCell id="vsq3GdMX_CqRgzTWQw8X-70" value="" style="curved=1;endArrow=classic;html=1;rounded=0;fontSize=12;startSize=8;endSize=8;" edge="1" parent="1">
          <mxGeometry width="50" height="50" relative="1" as="geometry">
            <mxPoint x="690" y="500" as="sourcePoint" />
            <mxPoint x="940" y="-570" as="targetPoint" />
            <Array as="points">
              <mxPoint x="740" y="500" />
              <mxPoint x="770" y="50" />
              <mxPoint x="840" y="-420" />
            </Array>
          </mxGeometry>
        </mxCell>
        <mxCell id="vsq3GdMX_CqRgzTWQw8X-78" value="" style="curved=1;endArrow=classic;html=1;rounded=0;fontSize=12;startSize=8;endSize=8;" edge="1" parent="1" target="vsq3GdMX_CqRgzTWQw8X-28">
          <mxGeometry width="50" height="50" relative="1" as="geometry">
            <mxPoint x="670" y="106" as="sourcePoint" />
            <mxPoint x="720" y="56" as="targetPoint" />
            <Array as="points">
              <mxPoint x="720" y="106" />
              <mxPoint x="760" y="60" />
            </Array>
          </mxGeometry>
        </mxCell>
        <mxCell id="vsq3GdMX_CqRgzTWQw8X-79" value="" style="curved=1;endArrow=classic;html=1;rounded=0;fontSize=12;startSize=8;endSize=8;exitX=0.5;exitY=1;exitDx=0;exitDy=0;" edge="1" parent="1" source="vsq3GdMX_CqRgzTWQw8X-27">
          <mxGeometry width="50" height="50" relative="1" as="geometry">
            <mxPoint x="1000" y="360" as="sourcePoint" />
            <mxPoint x="1010" y="460" as="targetPoint" />
            <Array as="points">
              <mxPoint x="1020" y="330" />
              <mxPoint x="1060" y="340" />
              <mxPoint x="1070" y="460" />
            </Array>
          </mxGeometry>
        </mxCell>
        <mxCell id="vsq3GdMX_CqRgzTWQw8X-80" value="" style="curved=1;endArrow=classic;html=1;rounded=0;fontSize=12;startSize=8;endSize=8;" edge="1" parent="1">
          <mxGeometry width="50" height="50" relative="1" as="geometry">
            <mxPoint x="690" y="589" as="sourcePoint" />
            <mxPoint x="940" y="-100" as="targetPoint" />
            <Array as="points">
              <mxPoint x="740" y="500" />
              <mxPoint x="790" y="220" />
              <mxPoint x="840" y="30" />
            </Array>
          </mxGeometry>
        </mxCell>
        <mxCell id="vsq3GdMX_CqRgzTWQw8X-81" value="" style="curved=1;endArrow=classic;html=1;rounded=0;fontSize=12;startSize=8;endSize=8;entryX=0.75;entryY=0;entryDx=0;entryDy=0;" edge="1" parent="1" target="vsq3GdMX_CqRgzTWQw8X-27">
          <mxGeometry width="50" height="50" relative="1" as="geometry">
            <mxPoint x="940" y="-90" as="sourcePoint" />
            <mxPoint x="1070" y="-60" as="targetPoint" />
            <Array as="points">
              <mxPoint x="940" y="-10" />
              <mxPoint x="1010" y="-60" />
            </Array>
          </mxGeometry>
        </mxCell>
        <mxCell id="vsq3GdMX_CqRgzTWQw8X-82" value="" style="curved=1;endArrow=classic;html=1;rounded=0;fontSize=12;startSize=8;endSize=8;entryX=0.25;entryY=1;entryDx=0;entryDy=0;" edge="1" parent="1" target="78961159f06e98e8-69">
          <mxGeometry width="50" height="50" relative="1" as="geometry">
            <mxPoint x="680" y="369" as="sourcePoint" />
            <mxPoint x="930" y="-320" as="targetPoint" />
            <Array as="points">
              <mxPoint x="730" y="280" />
              <mxPoint x="780" y="90" />
              <mxPoint x="830" y="-90" />
            </Array>
          </mxGeometry>
        </mxCell>
        <mxCell id="vsq3GdMX_CqRgzTWQw8X-83" value="" style="curved=1;endArrow=classic;html=1;rounded=0;fontSize=12;startSize=8;endSize=8;entryX=0.922;entryY=0.007;entryDx=0;entryDy=0;entryPerimeter=0;" edge="1" parent="1" target="vsq3GdMX_CqRgzTWQw8X-27">
          <mxGeometry width="50" height="50" relative="1" as="geometry">
            <mxPoint x="980" y="-560" as="sourcePoint" />
            <mxPoint x="1090" y="-160" as="targetPoint" />
            <Array as="points">
              <mxPoint x="1050" y="-480" />
              <mxPoint x="1040" y="-440" />
              <mxPoint x="1080" y="-320" />
            </Array>
          </mxGeometry>
        </mxCell>
      </root>
    </mxGraphModel>
  </diagram>
</mxfile>
